<svg xmlns="http://www.w3.org/2000/svg" version="1.1" xmlns:xlink="http://www.w3.org/1999/xlink" xmlns:svgjs="http://svgjs.dev/svgjs" width="1500" height="579" viewBox="0 0 1500 579"><g transform="matrix(1,0,0,1,-0.9090909090907644,-0.3881333117003578)"><svg viewBox="0 0 396 153" data-background-color="#ffffff" preserveAspectRatio="xMidYMid meet" height="579" width="1500" xmlns="http://www.w3.org/2000/svg" xmlns:xlink="http://www.w3.org/1999/xlink"><g id="tight-bounds" transform="matrix(1,0,0,1,0.23999999999995225,0.10256372485346787)"><svg viewBox="0 0 395.52 152.79487255029306" height="152.79487255029306" width="395.52"><g><svg viewBox="0 0 395.52 152.79487255029306" height="152.79487255029306" width="395.52"><g><svg viewBox="0 0 649.4081857736169 250.87540700444185" height="152.79487255029306" width="395.52"><g transform="matrix(1,0,0,1,0,34.67236088122171)"><svg viewBox="0 0 395.52 181.53068524199844" height="181.53068524199844" width="395.52"><g id="textblocktransform"><svg viewBox="0 0 395.52 181.53068524199844" height="181.53068524199844" width="395.52" id="textblock"><g><svg viewBox="0 0 395.52 133.33745770903818" height="133.33745770903818" width="395.52"><g transform="matrix(1,0,0,1,0,0)"><svg width="395.52" viewBox="1.75 -47 206.88 69.75" height="133.33745770903818" data-palette-color="#233565"><path d="M42.05-41.5Q43.6-41.2 44.38-40.45 45.15-39.7 45.15-38.7L45.15-38.7Q45.15-37.05 44.23-36.3 43.3-35.55 41.3-35.7L41.3-35.7Q36.8-36.05 34.27-36.18 31.75-36.3 27.65-36.35L27.65-36.35Q25.8-27.15 24.25-17.85L24.25-17.85Q23.7-14.45 23.1-9.98 22.5-5.5 22.3-2.75L22.3-2.75Q22.2-1.3 21.1-0.53 20 0.25 18.45 0.25L18.45 0.25Q16.8 0.25 15.9-0.55 15-1.35 15-2.65L15-2.65Q15-3.85 15.38-6.63 15.75-9.4 16.25-12.45L16.25-12.45Q16.8-15.5 17.1-17.75L17.1-17.75Q17.65-21.55 18.35-25.3 19.05-29.05 19.75-32.4L19.75-32.4Q19.9-33.15 20.1-34.13 20.3-35.1 20.55-36.3L20.55-36.3Q15.65-36.15 12.85-35.5 10.05-34.85 8.88-33.68 7.7-32.5 7.7-30.65L7.7-30.65Q7.7-28.95 8.7-27.4L8.7-27.4Q8.9-27.05 8.9-26.65L8.9-26.65Q8.9-25.7 7.78-24.88 6.65-24.05 5.45-24.05L5.45-24.05Q4.6-24.05 4.05-24.55L4.05-24.55Q3.05-25.4 2.4-26.98 1.75-28.55 1.75-30.55L1.75-30.55Q1.75-34.8 4.53-37.38 7.3-39.95 12.98-41.15 18.65-42.35 27.55-42.35L27.55-42.35Q33.05-42.35 36.33-42.15 39.6-41.95 42.05-41.5L42.05-41.5ZM38.65 0.25Q35.55 0.25 33.7-2 31.85-4.25 31.85-7.9L31.85-7.9Q31.85-11.9 33.7-15.48 35.55-19.05 38.62-21.23 41.7-23.4 45.15-23.4L45.15-23.4Q46.25-23.4 46.62-22.98 47-22.55 47.25-21.45L47.25-21.45Q48.3-21.65 49.45-21.65L49.45-21.65Q51.9-21.65 51.9-19.9L51.9-19.9Q51.9-18.85 51.15-14.9L51.15-14.9Q50-9.15 50-6.9L50-6.9Q50-6.15 50.37-5.7 50.75-5.25 51.35-5.25L51.35-5.25Q52.3-5.25 53.65-6.48 55-7.7 57.3-10.45L57.3-10.45Q57.9-11.15 58.65-11.15L58.65-11.15Q59.3-11.15 59.67-10.55 60.05-9.95 60.05-8.9L60.05-8.9Q60.05-6.9 59.1-5.8L59.1-5.8Q57.05-3.25 54.75-1.5 52.45 0.25 50.3 0.25L50.3 0.25Q48.65 0.25 47.27-0.88 45.9-2 45.2-3.95L45.2-3.95Q42.6 0.25 38.65 0.25L38.65 0.25ZM40.45-4.8Q41.55-4.8 42.55-6.1 43.55-7.4 44-9.55L44-9.55 45.85-18.75Q43.75-18.7 41.97-17.18 40.2-15.65 39.15-13.15 38.1-10.65 38.1-7.85L38.1-7.85Q38.1-6.3 38.72-5.55 39.35-4.8 40.45-4.8L40.45-4.8ZM65.3 1.35Q62.7 1.35 61.32 0.15 59.95-1.05 59.95-2.55L59.95-2.55Q59.95-3.85 60.89-4.8 61.84-5.75 63.7-5.75L63.7-5.75Q64.34-5.75 65.22-5.63 66.09-5.5 66.55-5.45L66.55-5.45Q66.5-6.75 65.97-7.9 65.44-9.05 64.64-10.13 63.84-11.2 63.14-12L63.14-12Q61.59-9.05 60.07-7.1 58.55-5.15 56.74-3.4L56.74-3.4Q55.84-2.5 54.84-2.5L54.84-2.5Q54.05-2.5 53.55-3.08 53.05-3.65 53.05-4.5L53.05-4.5Q53.05-5.5 53.74-6.35L53.74-6.35 54.39-7.15Q57.14-10.55 58.55-12.75L58.55-12.75Q59.39-14.2 60.55-16.63 61.7-19.05 62.8-21.65L62.8-21.65Q63.74-23.85 66.75-23.85L66.75-23.85Q68.14-23.85 68.69-23.6 69.25-23.35 69.25-22.8L69.25-22.8Q69.25-22.5 69.05-21.85 68.84-21.2 68.5-20.55L68.5-20.55Q67.59-18.75 67.59-17.5L67.59-17.5Q67.59-16.75 68.12-15.85 68.64-14.95 69.75-13.6L69.75-13.6Q71.34-11.5 72.17-10.03 73-8.55 73-6.8L73-6.8Q73-6.3 72.89-5.4L72.89-5.4Q75.34-6.35 78.64-10.45L78.64-10.45Q79.25-11.15 80-11.15L80-11.15Q80.64-11.15 81.02-10.55 81.39-9.95 81.39-8.9L81.39-8.9Q81.39-7 80.44-5.8L80.44-5.8Q77.94-2.7 75.67-1.58 73.39-0.45 70.05-0.35L70.05-0.35Q68.05 1.35 65.3 1.35L65.3 1.35ZM106.24-11.15Q106.89-11.15 107.27-10.55 107.64-9.95 107.64-8.9L107.64-8.9Q107.64-6.9 106.69-5.8L106.69-5.8Q104.44-3.05 102.14-1.4 99.84 0.25 96.69 0.25L96.69 0.25Q92.84 0.25 90.49-1.95 88.14-4.15 88.14-7.8L88.14-7.8Q88.14-9.75 90.14-10.6L90.14-10.6Q92.34-11.55 93.29-12.63 94.24-13.7 94.24-15.25L94.24-15.25Q94.24-16.15 93.87-16.6 93.49-17.05 92.94-17.05L92.94-17.05Q91.59-17.05 89.97-15.1 88.34-13.15 86.94-10.08 85.54-7 84.74-3.75L84.74-3.75Q84.19-1.4 83.47-0.58 82.74 0.25 81.19 0.25L81.19 0.25Q79.64 0.25 78.92-0.88 78.19-2 77.94-4.35 77.69-6.7 77.69-11.25L77.69-11.25Q77.69-18.95 79.27-27.3 80.84-35.65 83.92-41.33 86.99-47 91.29-47L91.29-47Q93.59-47 95.02-45.03 96.44-43.05 96.44-39.9L96.44-39.9Q96.44-34.85 93.49-29.43 90.54-24 83.89-16.75L83.89-16.75Q83.74-14.15 83.74-11.4L83.74-11.4Q86.14-17.65 89.24-20.48 92.34-23.3 95.04-23.3L95.04-23.3Q97.54-23.3 99.07-21.6 100.59-19.9 100.59-17.4L100.59-17.4Q100.59-14.65 99.19-12.35 97.79-10.05 94.39-8.25L94.39-8.25Q94.59-6.9 95.62-6.08 96.64-5.25 98.09-5.25L98.09-5.25Q99.64-5.25 101.09-6.45 102.54-7.65 104.89-10.45L104.89-10.45Q105.49-11.15 106.24-11.15L106.24-11.15ZM90.24-42.05Q89.34-42.05 88.24-39.48 87.14-36.9 86.12-32.52 85.09-28.15 84.44-23L84.44-23Q87.54-26.65 89.57-30.95 91.59-35.25 91.59-38.75L91.59-38.75Q91.59-40.35 91.24-41.2 90.89-42.05 90.24-42.05L90.24-42.05ZM117.54 0.4Q110.89 0.4 106.89-2.13 102.89-4.65 102.89-9.85L102.89-9.85Q102.89-12.6 103.84-14.05 104.79-15.5 106.64-15.5L106.64-15.5Q107.99-15.5 108.84-14.8 109.69-14.1 109.69-13L109.69-13Q109.69-12 109.54-11.25L109.54-11.25Q109.54-11.05 109.47-10.55 109.39-10.05 109.39-9.5L109.39-9.5Q109.39-7.25 111.66-6.15 113.94-5.05 118.04-5.05L118.04-5.05Q122.29-5.05 124.69-6.58 127.09-8.1 127.09-10.85L127.09-10.85Q127.09-12.55 125.99-13.78 124.89-15 123.24-15.83 121.59-16.65 118.59-17.85L118.59-17.85Q114.74-19.35 112.31-20.7 109.89-22.05 108.16-24.38 106.44-26.7 106.44-30.15L106.44-30.15Q106.44-33.75 108.36-36.55 110.29-39.35 113.91-40.9 117.54-42.45 122.44-42.45L122.44-42.45Q126.09-42.45 129.14-41.38 132.19-40.3 134.01-38.1 135.84-35.9 135.84-32.7L135.84-32.7Q135.84-29.55 134.89-27.95 133.94-26.35 132.09-26.35L132.09-26.35Q130.79-26.35 129.91-27.15 129.04-27.95 129.04-29.05L129.04-29.05Q129.04-30 129.19-30.8L129.19-30.8Q129.34-32.3 129.34-32.7L129.34-32.7Q129.34-34.8 127.29-35.9 125.24-37 122.19-37L122.19-37Q117.89-37 115.61-35.43 113.34-33.85 113.34-31L113.34-31Q113.34-29.1 114.52-27.75 115.69-26.4 117.44-25.5 119.19-24.6 122.34-23.35L122.34-23.35Q126.14-21.8 128.44-20.55 130.74-19.3 132.37-17.15 133.99-15 133.99-11.85L133.99-11.85Q133.99-5.95 129.51-2.78 125.04 0.4 117.54 0.4L117.54 0.4ZM163.59-11.05Q164.24-11.05 164.61-10.43 164.99-9.8 164.99-8.85L164.99-8.85Q164.99-7.7 164.64-7.05 164.29-6.4 163.54-5.9L163.54-5.9 153.94 0.55Q152.04 10.9 148.96 16.82 145.89 22.75 141.14 22.75L141.14 22.75Q138.59 22.75 136.99 21.18 135.39 19.6 135.39 17.05L135.39 17.05Q135.39 14.7 136.46 12.25 137.54 9.8 140.46 6.63 143.39 3.45 148.74-0.65L148.74-0.65 148.89-1.8Q149.24-3.65 149.69-7.1L149.69-7.1Q148.69-3.5 146.89-1.63 145.09 0.25 143.09 0.25L143.09 0.25Q140.84 0.25 139.41-1.83 137.99-3.9 137.99-7L137.99-7Q137.99-10.75 138.49-13.88 138.99-17 140.14-20.5L140.14-20.5Q140.64-22 141.54-22.65 142.44-23.3 144.39-23.3L144.39-23.3Q145.49-23.3 145.91-22.95 146.34-22.6 146.34-21.9L146.34-21.9Q146.34-21.5 145.79-19.2L145.79-19.2Q145.29-17.35 144.99-15.85L144.99-15.85Q144.59-13.8 144.29-11.93 143.99-10.05 143.99-8.85L143.99-8.85Q143.99-6.95 145.04-6.95L145.04-6.95Q145.79-6.95 146.91-8.45 148.04-9.95 149.31-13 150.59-16.05 151.79-20.5L151.79-20.5Q152.19-22 153.01-22.65 153.84-23.3 155.49-23.3L155.49-23.3Q156.64-23.3 157.09-23 157.54-22.7 157.54-22L157.54-22Q157.54-20.75 156.24-13.4L156.24-13.4 154.94-5.35Q158.79-8.25 162.44-10.65L162.44-10.65Q163.09-11.05 163.59-11.05L163.59-11.05ZM141.69 17.9Q142.94 17.9 144.49 15 146.04 12.1 147.59 5.35L147.59 5.35Q143.74 8.6 142.01 11.28 140.29 13.95 140.29 15.95L140.29 15.95Q140.29 16.8 140.61 17.35 140.94 17.9 141.69 17.9L141.69 17.9ZM164.94 0.25Q163.04 0.25 162.26-1.75 161.49-3.75 161.49-8.15L161.49-8.15Q161.49-14.65 163.34-20.5L163.34-20.5Q163.79-21.95 164.81-22.63 165.84-23.3 167.69-23.3L167.69-23.3Q168.69-23.3 169.09-23.05 169.49-22.8 169.49-22.1L169.49-22.1Q169.49-21.3 168.74-18.5L168.74-18.5Q168.24-16.5 167.94-15 167.64-13.5 167.44-11.3L167.44-11.3Q169.09-15.6 171.14-18.3 173.19-21 175.16-22.15 177.14-23.3 178.79-23.3L178.79-23.3Q182.04-23.3 182.04-20.05L182.04-20.05Q182.04-18.1 180.94-13L180.94-13Q179.99-8.65 179.99-7.25L179.99-7.25Q179.99-5.25 181.44-5.25L181.44-5.25Q182.44-5.25 183.81-6.48 185.19-7.7 187.49-10.45L187.49-10.45Q188.09-11.15 188.84-11.15L188.84-11.15Q189.49-11.15 189.86-10.55 190.24-9.95 190.24-8.9L190.24-8.9Q190.24-6.9 189.29-5.8L189.29-5.8Q187.14-3.15 184.66-1.45 182.19 0.25 179.04 0.25L179.04 0.25Q176.49 0.25 175.19-1.23 173.89-2.7 173.89-5.5L173.89-5.5Q173.89-6.9 174.59-10.5L174.59-10.5Q175.24-13.65 175.24-14.85L175.24-14.85Q175.24-15.65 174.69-15.65L174.69-15.65Q174.04-15.65 172.86-13.98 171.69-12.3 170.46-9.55 169.24-6.8 168.49-3.75L168.49-3.75Q167.94-1.4 167.21-0.58 166.49 0.25 164.94 0.25L164.94 0.25ZM195.73 0.25Q190.83 0.25 188.11-2.53 185.38-5.3 185.38-9.85L185.38-9.85Q185.38-13.9 186.98-16.95 188.58-20 191.13-21.65 193.68-23.3 196.48-23.3L196.48-23.3Q199.23-23.3 200.76-21.68 202.28-20.05 202.28-17.5L202.28-17.5Q202.28-15.4 201.36-13.95 200.43-12.5 198.93-12.5L198.93-12.5Q197.98-12.5 197.41-12.95 196.83-13.4 196.83-14.2L196.83-14.2Q196.83-14.55 196.93-15 197.03-15.45 197.08-15.65L197.08-15.65Q197.33-16.4 197.33-17.05L197.33-17.05Q197.33-17.7 197.01-18.05 196.68-18.4 196.08-18.4L196.08-18.4Q194.93-18.4 193.93-17.38 192.93-16.35 192.33-14.6 191.73-12.85 191.73-10.75L191.73-10.75Q191.73-4.95 196.78-4.95L196.78-4.95Q198.83-4.95 201.21-6.33 203.58-7.7 205.88-10.45L205.88-10.45Q206.48-11.15 207.23-11.15L207.23-11.15Q207.88-11.15 208.26-10.55 208.63-9.95 208.63-8.9L208.63-8.9Q208.63-7 207.68-5.8L207.68-5.8Q205.33-2.9 202.06-1.33 198.78 0.25 195.73 0.25L195.73 0.25Z" opacity="1" transform="matrix(1,0,0,1,0,0)" fill="#233565" class="wordmark-text-0" data-fill-palette-color="primary" id="text-0"></path></svg></g></svg></g><g transform="matrix(1,0,0,1,163.310208,164.81523137515708)"><svg viewBox="0 0 232.209792 16.715453866841372" height="16.715453866841372" width="232.209792"><g transform="matrix(1,0,0,1,0,0)"><svg width="232.209792" viewBox="2 -33.75 611.98 43.95" height="16.715453866841372" data-palette-color="#233565"><path d="M36.2-28.9Q36.5-29.95 37.1-30.63 37.7-31.3 38.4-31.3L38.4-31.3Q40.1-31.3 40.85-30.65 41.6-30 41.6-28.4L41.6-28.4Q41.6-27.95 40.9-25.85L40.9-25.85Q39.35-21.1 37.5-14.1L37.5-14.1Q37.05-12.5 36.77-11.3 36.5-10.1 36.3-9.3L36.3-9.3Q35.1-4.15 34.2-1.55L34.2-1.55Q33.9-0.8 33.15-0.38 32.4 0.05 31.55 0.05L31.55 0.05Q30.7 0.05 29.88-0.33 29.05-0.7 28.7-1.2L28.7-1.2Q27.15-4.25 24.88-9.53 22.6-14.8 21.35-18.75L21.35-18.75Q18.25-10.9 15.8-3.6L15.8-3.6Q15.65-3.15 15.48-2.63 15.3-2.1 15.1-1.55L15.1-1.55Q14.75-0.8 14.1-0.38 13.45 0.05 12.65 0.05L12.65 0.05Q11.75 0.05 10.9-0.33 10.05-0.7 9.75-1.2L9.75-1.2Q9.1-2.3 8.38-4.6 7.65-6.9 6.45-11.05L6.45-11.05 5.2-15.3Q3.9-19.45 2.95-23.8 2-28.15 2-29L2-29Q2-30.05 3.05-30.68 4.1-31.3 5.15-31.3L5.15-31.3Q5.75-31.3 6.4-30.93 7.05-30.55 7.25-29.65L7.25-29.65Q9-20.3 12.4-7.95L12.4-7.95Q13.7-11.05 15.28-15.5 16.85-19.95 18.3-24.15L18.3-24.15 18.8-25.65Q19-26.4 19.83-26.83 20.65-27.25 21.5-27.25L21.5-27.25Q22.6-27.25 23.3-26.7 24-26.15 24.2-25.5L24.2-25.5Q24.25-25.3 26.2-19.55 28.15-13.8 30.85-7.95L30.85-7.95Q31.85-10.9 33.25-17.4L33.25-17.4 34-20.7Q35.35-26 36.2-28.9L36.2-28.9ZM51.45-31.7Q51.45-30.4 51.4-28.68 51.35-26.95 51.3-26.05L51.3-26.05Q51.15-23.5 51.15-20.95L51.15-20.95Q51.15-19.05 51.3-17L51.3-17Q52.85-19.25 54.65-20.3 56.45-21.35 59-21.35L59-21.35Q60.85-21.35 62.45-19.7 64.05-18.05 64.5-15.85L64.5-15.85Q64.65-13.9 64.65-11.1L64.65-11.1Q64.65-9.3 64.85-6.4L64.85-6.4Q64.95-5.3 65.42-4.35 65.9-3.4 66.8-3.4L66.8-3.4Q67.25-3.4 67.52-3.45 67.8-3.5 68.05-3.5L68.05-3.5Q68.75-3.5 69.02-3.15 69.3-2.8 69.3-2.15L69.3-2.15Q69.3-0.95 68.1-0.35 66.9 0.25 65.9 0.25L65.9 0.25Q62.3 0.25 60.95-2.75L60.95-2.75Q60.2-4.45 60-7.18 59.8-9.9 59.8-13.55L59.8-13.55Q59.8-17.15 57.35-17.15L57.35-17.15Q56-17.15 54.62-15.73 53.25-14.3 52.35-11.98 51.45-9.65 51.45-7.15L51.45-7.15 51.5-1.95Q51.5-0.85 50.65-0.33 49.8 0.2 49.05 0.2L49.05 0.2Q47.95 0.2 47.05-0.48 46.15-1.15 46.15-2L46.15-2Q46.5-5.75 46.5-14.55L46.5-14.55Q46.5-16.15 46.25-26.4L46.25-26.4 46.1-31Q46.1-32.1 47.1-32.93 48.1-33.75 49.35-33.75L49.35-33.75Q50.45-33.75 50.95-33.25 51.45-32.75 51.45-31.7L51.45-31.7ZM71.9-10.6Q71.9-12.5 72.6-14.43 73.3-16.35 74.45-17.95L74.45-17.95Q75.6-19.55 78.1-20.58 80.6-21.6 82.55-21.6L82.55-21.6Q84.55-21.6 86.62-21.05 88.7-20.5 89.5-19.35L89.5-19.35Q91.35-16.75 91.35-14.25L91.35-14.25Q91.35-12.9 90.77-11.95 90.2-11 89.15-9.9L89.15-9.9Q88.3-9 86.47-8.7 84.65-8.4 82.85-8.4L82.85-8.4Q81.7-8.4 80.05-8.63 78.4-8.85 76.85-9.2L76.85-9.2Q76.95-8.2 77.35-7.25 77.75-6.3 78.3-5.8L78.3-5.8Q79.3-4.85 80.37-4.6 81.45-4.35 83.15-4.35L83.15-4.35Q84.95-4.35 86.5-4.95L86.5-4.95Q87.75-5.4 88.55-5.4L88.55-5.4Q89.5-5.4 90-4.83 90.5-4.25 90.5-3.35L90.5-3.35Q90.5-2.1 89.05-1.3 87.6-0.5 85.72-0.13 83.85 0.25 82.7 0.25L82.7 0.25Q80.35 0.25 78.15-0.6 75.95-1.45 74.5-3L74.5-3Q73.3-4.4 72.6-6.38 71.9-8.35 71.9-10.6L71.9-10.6ZM82.8-17.35Q81.7-17.35 80.6-16.93 79.5-16.5 78.8-15.75L78.8-15.75Q77.9-14.8 77.57-14.23 77.25-13.65 77.15-12.65L77.15-12.65Q78.4-12.25 82.35-12.25L82.35-12.25Q84.5-12.25 85.67-12.9 86.85-13.55 86.85-14.6L86.85-14.6Q86.85-15.65 85.55-16.5 84.25-17.35 82.8-17.35L82.8-17.35ZM103.54-2Q103.54-1.15 102.89-0.5 102.24 0.15 101.29 0.15L101.29 0.15Q99.79 0.15 99.09-0.43 98.39-1 98.39-2.55L98.39-2.55Q98.39-4.4 98.29-7.4L98.29-7.4Q98.19-9.9 98.19-11.6L98.19-11.6Q98.19-12.4 98.29-13.7L98.29-13.7Q98.39-14.9 98.39-15.5L98.39-15.5Q98.24-16.45 97.64-17.07 97.04-17.7 96.09-17.7L96.09-17.7Q95.64-17.7 95.34-18.13 95.04-18.55 95.04-19L95.04-19Q95.04-20.15 95.97-20.75 96.89-21.35 98.19-21.35L98.19-21.35Q100.89-21.35 101.94-18.15L101.94-18.15Q103.24-19.65 104.92-20.58 106.59-21.5 108.14-21.5L108.14-21.5Q109.99-21.5 111.52-20.5 113.04-19.5 113.04-17.8L113.04-17.8Q113.04-16.85 112.22-15.85 111.39-14.85 110.54-14.85L110.54-14.85Q110.09-14.85 109.77-15.08 109.44-15.3 108.99-15.75L108.99-15.75Q108.49-16.25 108.14-16.48 107.79-16.7 107.34-16.7L107.34-16.7Q106.54-16.7 105.84-16.45 105.14-16.2 104.89-15.85L104.89-15.85Q104.09-14.6 103.72-13.6 103.34-12.6 103.34-11.45L103.34-11.45Q103.34-10.6 103.29-10.1L103.29-10.1 103.24-7.25Q103.24-6.6 103.29-5.8 103.34-5 103.39-4.6L103.39-4.6Q103.54-3.25 103.54-2L103.54-2ZM115.59-10.6Q115.59-12.5 116.29-14.43 116.99-16.35 118.14-17.95L118.14-17.95Q119.29-19.55 121.79-20.58 124.29-21.6 126.24-21.6L126.24-21.6Q128.24-21.6 130.31-21.05 132.39-20.5 133.19-19.35L133.19-19.35Q135.04-16.75 135.04-14.25L135.04-14.25Q135.04-12.9 134.47-11.95 133.89-11 132.84-9.9L132.84-9.9Q131.99-9 130.16-8.7 128.34-8.4 126.54-8.4L126.54-8.4Q125.39-8.4 123.74-8.63 122.09-8.85 120.54-9.2L120.54-9.2Q120.64-8.2 121.04-7.25 121.44-6.3 121.99-5.8L121.99-5.8Q122.99-4.85 124.06-4.6 125.14-4.35 126.84-4.35L126.84-4.35Q128.64-4.35 130.19-4.95L130.19-4.95Q131.44-5.4 132.24-5.4L132.24-5.4Q133.19-5.4 133.69-4.83 134.19-4.25 134.19-3.35L134.19-3.35Q134.19-2.1 132.74-1.3 131.29-0.5 129.41-0.13 127.54 0.25 126.39 0.25L126.39 0.25Q124.04 0.25 121.84-0.6 119.64-1.45 118.19-3L118.19-3Q116.99-4.4 116.29-6.38 115.59-8.35 115.59-10.6L115.59-10.6ZM126.49-17.35Q125.39-17.35 124.29-16.93 123.19-16.5 122.49-15.75L122.49-15.75Q121.59-14.8 121.27-14.23 120.94-13.65 120.84-12.65L120.84-12.65Q122.09-12.25 126.04-12.25L126.04-12.25Q128.19-12.25 129.37-12.9 130.54-13.55 130.54-14.6L130.54-14.6Q130.54-15.65 129.24-16.5 127.94-17.35 126.49-17.35L126.49-17.35ZM148.99-29.15Q148.99-31.3 152.13-31.3L152.13-31.3Q153.49-31.3 157.28-31.2L157.28-31.2Q161.49-31 163.63-31L163.63-31Q165.38-31 167.88-31.2L167.88-31.2Q169.59-31.3 170.03-31.3L170.03-31.3Q172.78-31.2 174.69-30.3L174.69-30.3Q175.24-30.05 175.59-29.7 175.94-29.35 175.94-28.55L175.94-28.55Q175.94-27.45 175.24-26.68 174.53-25.9 173.53-25.9L173.53-25.9Q172.44-25.9 170.34-26.2L170.34-26.2Q168.49-26.55 167.09-26.55L167.09-26.55Q165.74-26.55 165.03-26.5L165.03-26.5Q164.88-24.85 164.88-18.6L164.88-18.6Q164.88-11.15 165.34-3.5L165.34-3.5 165.44-2.05Q165.44 0 163.09 0L163.09 0Q161.24 0 160.59-0.88 159.94-1.75 159.94-3.55L159.94-3.55Q159.94-7.1 159.74-12.4L159.74-12.4Q159.53-16.8 159.53-18.65L159.53-18.65Q159.53-19.9 159.84-26.3L159.84-26.3 153.99-26.25Q151.19-26.25 150.09-26.78 148.99-27.3 148.99-29.15L148.99-29.15ZM201.88-2.4Q201.88-1.3 200.71-0.55 199.53 0.2 198.53 0.2L198.53 0.2Q196.63 0.2 195.51-0.28 194.38-0.75 193.43-2.05L193.43-2.05Q192.13-0.9 189.88-0.33 187.63 0.25 185.73 0.25L185.73 0.25Q182.63 0.25 180.63-1.43 178.63-3.1 178.63-6.35L178.63-6.35Q178.63-7.75 179.38-8.93 180.13-10.1 181.43-11L181.43-11Q182.88-11.95 184.73-12.48 186.58-13 188.58-13L188.58-13Q189.63-13 191.08-12.6 192.53-12.2 193.33-11.75L193.33-11.75 193.33-12.55Q193.33-15.25 192.03-16.28 190.73-17.3 187.83-17.3L187.83-17.3Q186.98-17.3 186.16-16.95 185.33-16.6 184.28-16L184.28-16Q182.88-15.25 181.63-15.25L181.63-15.25Q181.18-15.25 180.78-15.88 180.38-16.5 180.38-17L180.38-17Q180.38-18.45 181.76-19.5 183.13-20.55 185.03-21.08 186.93-21.6 188.43-21.6L188.43-21.6Q189.93-21.6 191.88-21.03 193.83-20.45 195.08-19.45L195.08-19.45Q196.58-18.15 197.41-16.43 198.23-14.7 198.23-12.65L198.23-12.65Q198.23-12 198.13-10.7L198.13-10.7Q198.03-9.3 198.03-8.3L198.03-8.3Q198.03-7.85 197.93-6.95L197.93-6.95Q197.83-5.85 197.83-5.2L197.83-5.2Q197.83-4.6 198.28-4.17 198.73-3.75 199.33-3.75L199.33-3.75 200.73-3.8Q201.28-3.8 201.58-3.4 201.88-3 201.88-2.4L201.88-2.4ZM185.78-3.7Q187.93-3.7 189.38-4.15 190.83-4.6 192.88-5.8L192.88-5.8Q193.08-6.65 193.13-8.05L193.13-8.05Q190.38-9.35 188.58-9.35L188.58-9.35Q186.53-9.35 184.93-8.6 183.33-7.85 183.33-5.95L183.33-5.95Q183.33-5 184.13-4.35 184.93-3.7 185.78-3.7L185.78-3.7ZM219.18-11.25Q219.58-11 220.76-10.33 221.93-9.65 222.33-8.75 222.73-7.85 222.73-6.25L222.73-6.25Q222.73-4.45 221.68-3.08 220.63-1.7 218.98-0.95L218.98-0.95Q217.78-0.4 216.06-0.1 214.33 0.2 213.33 0.2L213.33 0.2Q212.33 0.2 210.76-0.1 209.18-0.4 208.58-0.65L208.58-0.65Q207.03-1.55 205.91-2.85 204.78-4.15 204.78-5.5L204.78-5.5Q204.78-6.5 205.43-7.08 206.08-7.65 207.13-7.65L207.13-7.65Q207.63-7.65 208.18-7.28 208.73-6.9 208.93-6.5L208.93-6.5Q209.48-5.2 210.78-4.55 212.08-3.9 213.43-3.9L213.43-3.9Q215.18-3.9 216.68-4.48 218.18-5.05 218.18-6.05L218.18-6.05Q218.18-6.5 217.96-6.78 217.73-7.05 217.33-7.35L217.33-7.35Q216.63-7.85 215.23-8.18 213.83-8.5 213.43-8.6L213.43-8.6Q211.38-9.05 209.43-9.95L209.43-9.95Q207.48-10.9 206.33-12.2 205.18-13.5 205.18-15.55L205.18-15.55Q205.18-16.9 206.18-18.38 207.18-19.85 208.43-20.45L208.43-20.45Q209.33-20.8 211.46-21.2 213.58-21.6 214.33-21.6L214.33-21.6Q215.48-21.6 216.83-21.38 218.18-21.15 218.88-20.65L218.88-20.65Q220.23-19.85 221.08-18.98 221.93-18.1 221.93-17L221.93-17Q221.93-16.45 221.68-15.83 221.43-15.2 221.08-15.05L221.08-15.05Q220.33-14.7 219.33-14.7L219.33-14.7Q218.88-14.7 218.61-14.95 218.33-15.2 217.88-15.75L217.88-15.75Q217.33-16.6 216.83-16.75L216.83-16.75Q216.23-16.9 215.08-17.13 213.93-17.35 213.53-17.35L213.53-17.35Q212.38-17.35 211.16-16.7 209.93-16.05 209.93-15.2L209.93-15.2Q209.93-14.75 210.31-14.5 210.68-14.25 211.11-14.05 211.53-13.85 211.68-13.8L211.68-13.8Q212.73-13.3 214.01-12.95 215.28-12.6 215.58-12.5L215.58-12.5Q218.28-11.85 219.18-11.25L219.18-11.25ZM231.28 0.2Q230.28 0.2 229.58-0.15 228.88-0.5 228.73-0.9L228.73-0.9Q228.18-2.9 228.18-6.15L228.18-6.15Q228.18-12.15 228.38-15.9L228.38-15.9Q228.58-20.35 228.58-24.45L228.58-24.45Q228.58-25.65 228.28-27.95L228.28-27.95Q228.23-28.35 228.13-29.4 228.03-30.45 228.03-31.35L228.03-31.35Q228.03-32.45 228.8-33.1 229.58-33.75 230.83-33.75L230.83-33.75Q231.83-33.75 232.45-33.13 233.08-32.5 233.08-31.45L233.08-31.45Q233.08-29.85 233.18-26.95L233.18-26.95Q233.28-24.25 233.28-22.9L233.28-22.9Q233.28-21.4 233.18-18.9L233.18-18.9Q233.08-17.4 233.08-16.7L233.08-16.7Q233.08-14.5 233.13-13.05L233.13-13.05Q234.98-14.9 237.98-17.4 240.98-19.9 242.63-20.9L242.63-20.9Q244.38-21.95 244.93-21.95L244.93-21.95Q245.98-21.95 246.73-21.5 247.48-21.05 247.48-20.2L247.48-20.2Q247.48-19.35 247.23-18.85 246.98-18.35 246.33-17.85L246.33-17.85 239.88-13.15Q240.98-12.6 241.75-11.75 242.53-10.9 243.33-9.65L243.33-9.65Q245.03-6.85 246.05-5.55 247.08-4.25 247.93-4.25L247.93-4.25 249.18-4.3Q249.53-4.3 249.8-3.9 250.08-3.5 250.08-2.75L250.08-2.75Q250.08-1.6 248.95-0.9 247.83-0.2 246.43-0.2L246.43-0.2Q244.48-0.2 242.98-1.73 241.48-3.25 240.13-5.85L240.13-5.85Q238.18-9.55 236.28-10.25L236.28-10.25 233.08-7.65 233.28-2.2Q233.28-0.9 232.6-0.35 231.93 0.2 231.28 0.2L231.28 0.2ZM267.28-11.25Q267.68-11 268.85-10.33 270.03-9.65 270.43-8.75 270.83-7.85 270.83-6.25L270.83-6.25Q270.83-4.45 269.78-3.08 268.73-1.7 267.08-0.95L267.08-0.95Q265.88-0.4 264.15-0.1 262.43 0.2 261.43 0.2L261.43 0.2Q260.43 0.2 258.85-0.1 257.28-0.4 256.68-0.65L256.68-0.65Q255.13-1.55 254-2.85 252.88-4.15 252.88-5.5L252.88-5.5Q252.88-6.5 253.53-7.08 254.18-7.65 255.23-7.65L255.23-7.65Q255.73-7.65 256.28-7.28 256.83-6.9 257.03-6.5L257.03-6.5Q257.58-5.2 258.88-4.55 260.18-3.9 261.53-3.9L261.53-3.9Q263.28-3.9 264.78-4.48 266.28-5.05 266.28-6.05L266.28-6.05Q266.28-6.5 266.05-6.78 265.83-7.05 265.43-7.35L265.43-7.35Q264.73-7.85 263.33-8.18 261.93-8.5 261.53-8.6L261.53-8.6Q259.48-9.05 257.53-9.95L257.53-9.95Q255.58-10.9 254.43-12.2 253.28-13.5 253.28-15.55L253.28-15.55Q253.28-16.9 254.28-18.38 255.28-19.85 256.53-20.45L256.53-20.45Q257.43-20.8 259.55-21.2 261.68-21.6 262.43-21.6L262.43-21.6Q263.58-21.6 264.93-21.38 266.28-21.15 266.98-20.65L266.98-20.65Q268.33-19.85 269.18-18.98 270.03-18.1 270.03-17L270.03-17Q270.03-16.45 269.78-15.83 269.53-15.2 269.18-15.05L269.18-15.05Q268.43-14.7 267.43-14.7L267.43-14.7Q266.98-14.7 266.7-14.95 266.43-15.2 265.98-15.75L265.98-15.75Q265.43-16.6 264.93-16.75L264.93-16.75Q264.33-16.9 263.18-17.13 262.03-17.35 261.63-17.35L261.63-17.35Q260.48-17.35 259.25-16.7 258.03-16.05 258.03-15.2L258.03-15.2Q258.03-14.75 258.4-14.5 258.78-14.25 259.2-14.05 259.63-13.85 259.78-13.8L259.78-13.8Q260.83-13.3 262.1-12.95 263.38-12.6 263.68-12.5L263.68-12.5Q266.38-11.85 267.28-11.25L267.28-11.25ZM316.57-31.6Q317.27-31.6 318.3-30.68 319.32-29.75 319.32-29.1L319.32-29.1Q319.32-26.05 319.12-20.75L319.12-20.75Q319.07-19.45 319.02-17.63 318.97-15.8 318.97-13.4L318.97-13.4Q318.97-5.8 319.87-2.2L319.87-2.2Q319.82-1 318.92-0.48 318.02 0.05 317.12 0.05L317.12 0.05Q315.12 0.05 314.5-1.35 313.87-2.75 313.87-5.35L313.87-5.35Q313.87-15 314.07-23.1L314.07-23.1Q308.32-16.7 305.12-12.35L305.12-12.35Q305.12-12.35 304.22-11.75L304.22-11.75Q303.37-11 302.82-11L302.82-11Q301.52-11 300.67-11.65 299.82-12.3 299.02-13.55L299.02-13.55 296.62-16.95Q294.12-20.45 292.97-22.25L292.97-22.25Q292.97-17.65 293.42-9.75L293.42-9.75Q293.77-5.2 293.77-2.9L293.77-2.9Q293.77-1.7 293.17-0.88 292.57-0.05 291.27-0.05L291.27-0.05Q289.97-0.05 289.14-0.55 288.32-1.05 288.27-2.05L288.27-2.05Q288.32-2.9 288.32-4.85L288.32-4.85Q288.32-8.75 288.07-14.35L288.07-14.35 287.97-17.05 287.87-20.55Q287.82-22.1 287.77-24.18 287.72-26.25 287.72-28.7L287.72-28.7Q287.72-31.7 290.97-31.7L290.97-31.7Q291.97-31.7 293-31.2 294.02-30.7 294.52-29.75L294.52-29.75Q294.92-28 297.47-23.95 300.02-19.9 302.47-16.35L302.47-16.35Q304.67-19.15 306.07-20.55L306.07-20.55Q308.47-23 310.05-25.1 311.62-27.2 313.47-30.15L313.47-30.15Q313.92-30.75 314.77-31.18 315.62-31.6 316.57-31.6L316.57-31.6ZM325.67-10.6Q325.67-12.5 326.37-14.43 327.07-16.35 328.22-17.95L328.22-17.95Q329.37-19.55 331.87-20.58 334.37-21.6 336.32-21.6L336.32-21.6Q338.32-21.6 340.39-21.05 342.47-20.5 343.27-19.35L343.27-19.35Q345.12-16.75 345.12-14.25L345.12-14.25Q345.12-12.9 344.54-11.95 343.97-11 342.92-9.9L342.92-9.9Q342.07-9 340.24-8.7 338.42-8.4 336.62-8.4L336.62-8.4Q335.47-8.4 333.82-8.63 332.17-8.85 330.62-9.2L330.62-9.2Q330.72-8.2 331.12-7.25 331.52-6.3 332.07-5.8L332.07-5.8Q333.07-4.85 334.14-4.6 335.22-4.35 336.92-4.35L336.92-4.35Q338.72-4.35 340.27-4.95L340.27-4.95Q341.52-5.4 342.32-5.4L342.32-5.4Q343.27-5.4 343.77-4.83 344.27-4.25 344.27-3.35L344.27-3.35Q344.27-2.1 342.82-1.3 341.37-0.5 339.49-0.13 337.62 0.25 336.47 0.25L336.47 0.25Q334.12 0.25 331.92-0.6 329.72-1.45 328.27-3L328.27-3Q327.07-4.4 326.37-6.38 325.67-8.35 325.67-10.6L325.67-10.6ZM336.57-17.35Q335.47-17.35 334.37-16.93 333.27-16.5 332.57-15.75L332.57-15.75Q331.67-14.8 331.34-14.23 331.02-13.65 330.92-12.65L330.92-12.65Q332.17-12.25 336.12-12.25L336.12-12.25Q338.27-12.25 339.44-12.9 340.62-13.55 340.62-14.6L340.62-14.6Q340.62-15.65 339.32-16.5 338.02-17.35 336.57-17.35L336.57-17.35ZM349.52-10.6Q349.52-12.5 350.22-14.43 350.92-16.35 352.07-17.95L352.07-17.95Q353.22-19.55 355.72-20.58 358.22-21.6 360.17-21.6L360.17-21.6Q362.17-21.6 364.24-21.05 366.32-20.5 367.12-19.35L367.12-19.35Q368.97-16.75 368.97-14.25L368.97-14.25Q368.97-12.9 368.39-11.95 367.82-11 366.77-9.9L366.77-9.9Q365.92-9 364.09-8.7 362.27-8.4 360.47-8.4L360.47-8.4Q359.32-8.4 357.67-8.63 356.02-8.85 354.47-9.2L354.47-9.2Q354.57-8.2 354.97-7.25 355.37-6.3 355.92-5.8L355.92-5.8Q356.92-4.85 357.99-4.6 359.07-4.35 360.77-4.35L360.77-4.35Q362.57-4.35 364.12-4.95L364.12-4.95Q365.37-5.4 366.17-5.4L366.17-5.4Q367.12-5.4 367.62-4.83 368.12-4.25 368.12-3.35L368.12-3.35Q368.12-2.1 366.67-1.3 365.22-0.5 363.34-0.13 361.47 0.25 360.32 0.25L360.32 0.25Q357.97 0.25 355.77-0.6 353.57-1.45 352.12-3L352.12-3Q350.92-4.4 350.22-6.38 349.52-8.35 349.52-10.6L349.52-10.6ZM360.42-17.35Q359.32-17.35 358.22-16.93 357.12-16.5 356.42-15.75L356.42-15.75Q355.52-14.8 355.19-14.23 354.87-13.65 354.77-12.65L354.77-12.65Q356.02-12.25 359.97-12.25L359.97-12.25Q362.12-12.25 363.29-12.9 364.47-13.55 364.47-14.6L364.47-14.6Q364.47-15.65 363.17-16.5 361.87-17.35 360.42-17.35L360.42-17.35ZM376.16-17.1L373.76-17.3Q373.06-17.4 372.64-17.9 372.21-18.4 372.21-19.1L372.21-19.1Q372.21-19.45 372.39-19.85 372.56-20.25 372.91-20.55L372.91-20.55Q373.56-21.2 376.41-21.2L376.41-21.2Q376.81-23.15 376.81-25.15L376.81-25.15Q376.81-25.9 376.76-26.45 376.71-27 376.71-27.3L376.71-27.3Q376.71-28.4 377.54-28.95 378.36-29.5 379.41-29.5L379.41-29.5Q380.71-29.5 381.19-28.85 381.66-28.2 381.66-26.45L381.66-26.45Q381.66-23.85 381.21-21.35L381.21-21.35Q382.01-21.35 383.41-21.45L383.41-21.45Q385.31-21.55 386.16-21.55L386.16-21.55Q387.01-21.55 387.64-21.13 388.26-20.7 388.26-19.95L388.26-19.95Q388.26-18 386.51-17.65L386.51-17.65Q384.66-17.2 380.76-17.1L380.76-17.1Q380.61-15.15 380.61-12.85L380.61-12.85Q380.61-9.25 381.06-6.95L381.06-6.95Q381.36-5.35 382.09-4.63 382.81-3.9 384.26-3.9L384.26-3.9Q385.11-3.9 386.01-4.35L386.01-4.35Q386.61-4.7 387.11-4.7L387.11-4.7Q387.81-4.7 388.14-4.25 388.46-3.8 388.46-3.05L388.46-3.05Q388.46-1.65 386.96-0.73 385.46 0.2 383.11 0.2L383.11 0.2Q381.66 0.2 380.19-0.5 378.71-1.2 377.71-2.25L377.71-2.25Q377.56-2.4 377.16-3.4 376.76-4.4 376.46-5.55L376.46-5.55Q375.96-7.9 375.96-12.15L375.96-12.15Q375.96-14 376.16-17.1L376.16-17.1ZM425.26-6.8Q426.21-6.8 426.68-6.08 427.16-5.35 427.16-4.5L427.16-4.5Q427.16-3.45 426.83-3.03 426.51-2.6 425.61-2.15L425.61-2.15Q423.51-1.15 420.41-0.55 417.31 0.05 413.76 0.05L413.76 0.05Q409.31 0.05 407.23-1.45 405.16-2.95 404.68-5.08 404.21-7.2 404.21-10.65L404.21-10.65Q404.21-14.35 404.51-17.93 404.81-21.5 405.56-27.05L405.56-27.05Q405.91-29.45 407.46-30.53 409.01-31.6 410.86-31.6L410.86-31.6Q412.41-31.6 415.91-31.7L415.91-31.7 420.26-31.75Q422.96-31.75 424.16-31.6L424.16-31.6Q425.66-31.3 426.38-30.93 427.11-30.55 427.11-29.65L427.11-29.65Q427.11-28.65 426.43-27.7 425.76-26.75 424.41-26.75L424.41-26.75Q422.86-26.75 419.96-26.95L419.96-26.95Q417.06-27.15 415.61-27.15L415.61-27.15Q414.36-27.15 413.16-27L413.16-27Q411.76-26.9 411.16-26.65 410.56-26.4 410.46-25.8L410.46-25.8Q409.76-20.65 409.76-18.2L409.76-18.2Q410.91-18.05 412.01-18.05L412.01-18.05Q413.41-18.05 415.01-18.2 416.61-18.35 417.06-18.4L417.06-18.4Q419.71-18.65 421.61-18.65L421.61-18.65Q422.71-18.65 423.28-18.25 423.86-17.85 423.86-17.15L423.86-17.15Q423.86-16.05 423.28-15.45 422.71-14.85 421.26-14.55L421.26-14.55Q419.51-14.2 416.93-14 414.36-13.8 411.91-13.8L411.91-13.8Q411.06-13.8 409.56-13.9L409.56-13.9Q409.41-10.85 409.41-8.25L409.41-8.25Q409.41-4.7 414.11-4.7L414.11-4.7Q416.61-4.7 418.26-5.05 419.91-5.4 422.06-6.05L422.06-6.05Q424.06-6.8 425.26-6.8L425.26-6.8ZM446.06-26.05Q445.36-26.05 444.71-26.4 444.06-26.75 443.81-27.45L443.81-27.45Q443.31-28.8 442.73-29.38 442.16-29.95 441.36-29.95L441.36-29.95Q440.86-29.95 440.43-29.2 440.01-28.45 439.81-26.85L439.81-26.85Q439.46-23.55 439.46-21.8L439.46-21.8Q440.21-21.65 441.56-21.65L441.56-21.65Q442.26-21.65 443.36-21.75L443.36-21.75 444.71-21.8Q445.61-21.8 446.11-21.45 446.61-21.1 446.61-20.3L446.61-20.3Q446.61-19.15 445.91-18.4 445.21-17.65 444.26-17.65L444.26-17.65Q440.66-17.65 439.41-17.3L439.41-17.3Q439.41-14.3 439.71-8.7L439.71-8.7Q439.71-7.85 439.81-6.25L439.81-6.25 440.01-2.4Q440.11-0.95 439.73-0.38 439.36 0.2 438.16 0.2L438.16 0.2Q435.96 0.2 435.31-2.45L435.31-2.45Q434.91-4.35 434.68-7.88 434.46-11.4 434.46-14.1L434.46-14.1Q434.46-15.5 434.61-17.35L434.61-17.35Q434.51-17.4 434.06-17.4L434.06-17.4Q433.61-17.4 433.41-17.35L433.41-17.35Q431.91-17.25 431.21-17.25L431.21-17.25Q430.76-17.25 430.31-17.9 429.86-18.55 429.86-19.4L429.86-19.4Q429.86-19.9 430.21-20.33 430.56-20.75 431.06-20.95L431.06-20.95Q431.81-21.35 433.21-21.35L433.21-21.35 434.71-21.35Q434.71-28.35 436.26-31.1L436.26-31.1Q437.76-33.7 441.21-33.7L441.21-33.7Q442.81-33.7 444.28-33.05 445.76-32.4 446.68-31.25 447.61-30.1 447.61-28.65L447.61-28.65Q447.61-27.1 447.21-26.58 446.81-26.05 446.06-26.05L446.06-26.05ZM465-26.05Q464.3-26.05 463.65-26.4 463-26.75 462.75-27.45L462.75-27.45Q462.25-28.8 461.68-29.38 461.1-29.95 460.3-29.95L460.3-29.95Q459.8-29.95 459.38-29.2 458.95-28.45 458.75-26.85L458.75-26.85Q458.4-23.55 458.4-21.8L458.4-21.8Q459.15-21.65 460.5-21.65L460.5-21.65Q461.2-21.65 462.3-21.75L462.3-21.75 463.65-21.8Q464.55-21.8 465.05-21.45 465.55-21.1 465.55-20.3L465.55-20.3Q465.55-19.15 464.85-18.4 464.15-17.65 463.2-17.65L463.2-17.65Q459.6-17.65 458.35-17.3L458.35-17.3Q458.35-14.3 458.65-8.7L458.65-8.7Q458.65-7.85 458.75-6.25L458.75-6.25 458.95-2.4Q459.05-0.95 458.68-0.38 458.3 0.2 457.1 0.2L457.1 0.2Q454.9 0.2 454.25-2.45L454.25-2.45Q453.85-4.35 453.63-7.88 453.4-11.4 453.4-14.1L453.4-14.1Q453.4-15.5 453.55-17.35L453.55-17.35Q453.45-17.4 453-17.4L453-17.4Q452.55-17.4 452.35-17.35L452.35-17.35Q450.85-17.25 450.15-17.25L450.15-17.25Q449.7-17.25 449.25-17.9 448.8-18.55 448.8-19.4L448.8-19.4Q448.8-19.9 449.15-20.33 449.5-20.75 450-20.95L450-20.95Q450.75-21.35 452.15-21.35L452.15-21.35 453.65-21.35Q453.65-28.35 455.2-31.1L455.2-31.1Q456.7-33.7 460.15-33.7L460.15-33.7Q461.75-33.7 463.23-33.05 464.7-32.4 465.63-31.25 466.55-30.1 466.55-28.65L466.55-28.65Q466.55-27.1 466.15-26.58 465.75-26.05 465-26.05L465-26.05ZM471.85-32.1Q473.6-31.95 474.9-31.18 476.2-30.4 476.2-28.85L476.2-28.85Q476.2-27.7 475.13-27.03 474.05-26.35 472.55-26.35L472.55-26.35Q471.1-26.35 470.55-27.1 470-27.85 470-28.65L470-28.65Q470-30.15 470.33-31.15 470.65-32.15 471.85-32.1L471.85-32.1ZM475.85-18.95L475.85-9.95 475.85-8.5Q475.85-6.55 475.98-4.83 476.1-3.1 476.3-1.35L476.3-1.35Q476.25-0.85 475.55-0.33 474.85 0.2 474.3 0.2L474.3 0.2Q473.35 0.2 472.38-0.18 471.4-0.55 471.2-1.1L471.2-1.1Q470.9-2.7 470.9-3.95L470.9-3.95Q470.9-8.05 470.65-13.15L470.65-13.15Q470.45-17.65 470.45-19.45L470.45-19.45Q470.45-20.35 471.35-21 472.25-21.65 473.25-21.65L473.25-21.65Q474.7-21.65 475.28-21 475.85-20.35 475.85-18.95L475.85-18.95ZM499.85-16.7Q499.85-14.5 497.6-14.5L497.6-14.5Q496.85-14.5 496.35-14.85 495.85-15.2 495.25-15.9L495.25-15.9Q493.75-17.55 492.65-17.55L492.65-17.55Q491.2-17.55 489.82-16.7 488.45-15.85 487.6-14.3 486.75-12.75 486.75-10.85L486.75-10.85Q486.75-8.75 487.57-7.35 488.4-5.95 490.15-4.95L490.15-4.95Q490.8-4.6 491.67-4.4 492.55-4.2 493.2-4.2L493.2-4.2Q494.65-4.2 496.85-5.35L496.85-5.35Q497.65-5.75 498.2-5.95 498.75-6.15 499.35-6.15L499.35-6.15Q499.9-6.15 500.6-5.65 501.3-5.15 501.3-4.4L501.3-4.4Q501.3-2.9 499.9-1.88 498.5-0.85 496.47-0.33 494.45 0.2 492.6 0.2L492.6 0.2Q489.65 0.2 487.12-1.15 484.6-2.5 483.1-4.88 481.6-7.25 481.6-10.25L481.6-10.25Q481.6-13.45 483.05-16.1 484.5-18.75 486.95-20.25 489.4-21.75 492.3-21.75L492.3-21.75Q493.95-21.75 495.7-21.15 497.45-20.55 498.65-19.4 499.85-18.25 499.85-16.7L499.85-16.7ZM508.1-32.1Q509.85-31.95 511.15-31.18 512.45-30.4 512.45-28.85L512.45-28.85Q512.45-27.7 511.37-27.03 510.3-26.35 508.8-26.35L508.8-26.35Q507.35-26.35 506.8-27.1 506.25-27.85 506.25-28.65L506.25-28.65Q506.25-30.15 506.57-31.15 506.9-32.15 508.1-32.1L508.1-32.1ZM512.1-18.95L512.1-9.95 512.1-8.5Q512.1-6.55 512.22-4.83 512.35-3.1 512.55-1.35L512.55-1.35Q512.5-0.85 511.8-0.33 511.1 0.2 510.55 0.2L510.55 0.2Q509.6 0.2 508.62-0.18 507.65-0.55 507.45-1.1L507.45-1.1Q507.15-2.7 507.15-3.95L507.15-3.95Q507.15-8.05 506.9-13.15L506.9-13.15Q506.7-17.65 506.7-19.45L506.7-19.45Q506.7-20.35 507.6-21 508.5-21.65 509.5-21.65L509.5-21.65Q510.95-21.65 511.52-21 512.1-20.35 512.1-18.95L512.1-18.95ZM517.94-10.6Q517.94-12.5 518.64-14.43 519.34-16.35 520.49-17.95L520.49-17.95Q521.64-19.55 524.14-20.58 526.64-21.6 528.59-21.6L528.59-21.6Q530.59-21.6 532.67-21.05 534.74-20.5 535.54-19.35L535.54-19.35Q537.39-16.75 537.39-14.25L537.39-14.25Q537.39-12.9 536.82-11.95 536.24-11 535.19-9.9L535.19-9.9Q534.34-9 532.52-8.7 530.69-8.4 528.89-8.4L528.89-8.4Q527.74-8.4 526.09-8.63 524.44-8.85 522.89-9.2L522.89-9.2Q522.99-8.2 523.39-7.25 523.79-6.3 524.34-5.8L524.34-5.8Q525.34-4.85 526.42-4.6 527.49-4.35 529.19-4.35L529.19-4.35Q530.99-4.35 532.54-4.95L532.54-4.95Q533.79-5.4 534.59-5.4L534.59-5.4Q535.54-5.4 536.04-4.83 536.54-4.25 536.54-3.35L536.54-3.35Q536.54-2.1 535.09-1.3 533.64-0.5 531.77-0.13 529.89 0.25 528.74 0.25L528.74 0.25Q526.39 0.25 524.19-0.6 521.99-1.45 520.54-3L520.54-3Q519.34-4.4 518.64-6.38 517.94-8.35 517.94-10.6L517.94-10.6ZM528.84-17.35Q527.74-17.35 526.64-16.93 525.54-16.5 524.84-15.75L524.84-15.75Q523.94-14.8 523.62-14.23 523.29-13.65 523.19-12.65L523.19-12.65Q524.44-12.25 528.39-12.25L528.39-12.25Q530.54-12.25 531.72-12.9 532.89-13.55 532.89-14.6L532.89-14.6Q532.89-15.65 531.59-16.5 530.29-17.35 528.84-17.35L528.84-17.35ZM564.99-3.85Q565.24-3.75 565.79-3.6 566.34-3.45 566.59-3.3 566.84-3.15 566.84-2.85L566.84-2.85Q566.89-1.65 565.96-0.88 565.04-0.1 563.79-0.1L563.79-0.1Q561.84-0.1 560.74-1.15 559.64-2.2 559.14-4.35L559.14-4.35Q558.94-5.2 558.94-6.7L558.94-6.7Q558.94-7.55 559.04-9.45L559.04-9.45Q559.14-11.45 559.14-12.65L559.14-12.65Q559.14-14.4 558.16-15.73 557.19-17.05 555.44-17.05L555.44-17.05Q554.39-17.05 553.24-16.43 552.09-15.8 551.64-14.9L551.64-14.9Q550.89-13.45 550.59-11.75L550.59-11.75Q550.04-8.75 550.04-5.5L550.04-5.5Q550.04-3.95 550.09-3.1L550.09-3.1Q550.09-2.9 550.12-2.33 550.14-1.75 550.01-1.28 549.89-0.8 549.59-0.4L549.59-0.4Q549.34-0.15 548.81 0.03 548.29 0.2 547.84 0.2L547.84 0.2Q547.14 0.2 546.09-0.4 545.04-1 544.89-1.75L544.89-1.75 544.84-2.6Q544.84-3.05 544.94-3.65L544.94-3.65Q545.54-7.15 545.54-9.75L545.54-9.75Q545.54-10.9 545.49-11.55L545.49-11.55 545.44-13.9Q545.44-15.1 544.84-16.23 544.24-17.35 543.44-17.35L543.44-17.35Q543.19-17.35 542.74-17.18 542.29-17 541.99-17L541.99-17Q541.49-17 540.91-17.5 540.34-18 540.34-18.55L540.34-18.55Q540.34-19.6 541.04-20.25L541.04-20.25Q541.79-20.85 542.51-21.2 543.24-21.55 544.19-21.55L544.19-21.55Q544.99-21.55 545.49-21.4 545.99-21.25 546.84-20.75L546.84-20.75Q547.29-20.5 547.89-19.65 548.49-18.8 548.89-17.25L548.89-17.25Q550.19-19.65 552.12-20.63 554.04-21.6 557.04-21.6L557.04-21.6Q558.19-21.6 559.51-20.85 560.84-20.1 561.79-19.1L561.79-19.1Q562.69-18 563.29-16.38 563.89-14.75 563.89-13.45L563.89-13.45Q563.89-12.7 563.79-11L563.79-11Q563.64-9.65 563.64-8.15L563.64-8.15Q563.64-4.65 564.99-3.85L564.99-3.85ZM588.19-16.7Q588.19-14.5 585.94-14.5L585.94-14.5Q585.19-14.5 584.69-14.85 584.19-15.2 583.59-15.9L583.59-15.9Q582.09-17.55 580.99-17.55L580.99-17.55Q579.54-17.55 578.16-16.7 576.79-15.85 575.94-14.3 575.09-12.75 575.09-10.85L575.09-10.85Q575.09-8.75 575.91-7.35 576.74-5.95 578.49-4.95L578.49-4.95Q579.14-4.6 580.01-4.4 580.89-4.2 581.54-4.2L581.54-4.2Q582.99-4.2 585.19-5.35L585.19-5.35Q585.99-5.75 586.54-5.95 587.09-6.15 587.69-6.15L587.69-6.15Q588.24-6.15 588.94-5.65 589.64-5.15 589.64-4.4L589.64-4.4Q589.64-2.9 588.24-1.88 586.84-0.85 584.81-0.33 582.79 0.2 580.94 0.2L580.94 0.2Q577.99 0.2 575.46-1.15 572.94-2.5 571.44-4.88 569.94-7.25 569.94-10.25L569.94-10.25Q569.94-13.45 571.39-16.1 572.84-18.75 575.29-20.25 577.74-21.75 580.64-21.75L580.64-21.75Q582.29-21.75 584.04-21.15 585.79-20.55 586.99-19.4 588.19-18.25 588.19-16.7L588.19-16.7ZM599.33 10.2Q597.43 10.2 596.16 9.58 594.88 8.95 594.26 8.08 593.63 7.2 593.63 6.55L593.63 6.55Q593.63 5.7 594.23 5.23 594.83 4.75 595.68 4.75L595.68 4.75Q596.18 4.75 596.63 5.05 597.08 5.35 597.13 5.4L597.13 5.4Q597.48 5.65 597.83 5.83 598.18 6 598.58 6L598.58 6Q599.68 6 600.38 4.55 601.08 3.1 601.78-0.15L601.78-0.15Q599.53-3.45 598.03-6.75L598.03-6.75 596.88-9.4Q596.63-10 595.51-12.53 594.38-15.05 593.28-17L593.28-17Q592.58-18.4 592.58-18.9L592.58-18.9Q592.58-20.15 593.46-20.75 594.33-21.35 595.48-21.35L595.48-21.35Q596.28-21.35 596.71-21.03 597.13-20.7 597.68-19.85L597.68-19.85Q599.13-17.45 600.83-12.65L600.83-12.65Q601.83-9.9 602.43-8.47 603.03-7.05 603.88-5.6L603.88-5.6Q604.73-7.55 606.03-12.25L606.03-12.25Q606.83-14.95 607.36-16.57 607.88-18.2 608.53-19.55L608.53-19.55Q608.98-20.45 609.66-21 610.33-21.55 611.18-21.55L611.18-21.55Q612.03-21.55 613.01-20.93 613.98-20.3 613.98-19.45L613.98-19.45Q613.98-18.95 613.63-18.25L613.63-18.25Q611.68-13.75 610.21-9.78 608.73-5.8 607.38-1.05L607.38-1.05Q606.58 1.6 605.71 4 604.83 6.4 604.48 6.95L604.48 6.95Q603.48 8.35 602.23 9.28 600.98 10.2 599.33 10.2L599.33 10.2Z" opacity="1" transform="matrix(1,0,0,1,0,0)" fill="#233565" class="slogan-text-1" data-fill-palette-color="secondary" id="text-1"></path></svg></g></svg></g></svg></g></svg></g><g transform="matrix(1,0,0,1,426.99777366611886,0)"><svg viewBox="0 0 222.410412107498 250.87540700444185" height="250.87540700444185" width="222.410412107498"><g><svg xmlns="http://www.w3.org/2000/svg" xmlns:xlink="http://www.w3.org/1999/xlink" version="1.1" x="0" y="0" viewBox="2.3149190788117955 0.4989999999999999 28.370080921188205 32.00099999999999" enable-background="new 0 0 33 33" xml:space="preserve" height="250.87540700444185" width="222.410412107498" class="icon-icon-0" data-fill-palette-color="accent" id="icon-0"><path d="M17.983 6.386V4.679h2.284c0.602 0 1.095-0.492 1.095-1.096V1.595c0-0.602-0.493-1.096-1.095-1.096h-7.525c-0.602 0-1.096 0.494-1.096 1.096v1.988c0 0.604 0.494 1.096 1.096 1.096h2.283V6.39c-5.059 0.568-9.368 4.012-10.977 8.938l2.811 0.918c1.367-4.182 5.242-6.99 9.646-6.99 5.593 0 10.144 4.551 10.144 10.143 0 5.596-4.551 10.146-10.144 10.146-4.173 0-7.868-2.525-9.406-6.35 0.026-0.01 0.062-0.021 0.087-0.031l0.663-0.232c0.816-0.293 0.948-0.994 0.284-1.557L7.6 20.921c-0.661-0.568-1.743-1.492-2.407-2.055l-0.528-0.455C4 17.845 3.327 18.085 3.17 18.94L3.043 19.63c-0.158 0.854-0.417 2.254-0.575 3.107l-0.126 0.693c-0.157 0.852 0.385 1.316 1.202 1.025l0.662-0.234c0.031-0.012 0.073-0.025 0.106-0.039 1.959 5.004 6.761 8.318 12.192 8.318 7.224 0 13.101-5.877 13.101-13.104C29.605 12.675 24.514 7.124 17.983 6.386z" fill="#8bd8bc" data-fill-palette-color="accent"></path><path d="M16.756 22.952c-1.215 0-1.977-0.516-2.276-1.545l-3.509 0.648c0.619 2.262 2.138 3.539 4.563 3.824v1.74h1.929v-1.74c1.427-0.158 2.54-0.627 3.356-1.398 0.812-0.773 1.22-1.732 1.22-2.873 0-0.811-0.213-1.525-0.629-2.121-0.421-0.596-0.945-1.023-1.57-1.27-0.635-0.254-1.67-0.533-3.125-0.855-0.634-0.143-1.018-0.279-1.162-0.418-0.138-0.135-0.21-0.305-0.21-0.498 0-0.537 0.419-0.801 1.245-0.801 0.988 0 1.643 0.424 1.965 1.275l3.141-0.98c-0.66-1.818-2.072-2.846-4.23-3.084v-1.678h-1.929v1.717c-1.333 0.199-2.324 0.689-2.973 1.459-0.648 0.775-0.972 1.654-0.972 2.654 0 0.906 0.299 1.703 0.891 2.398 0.588 0.697 1.992 1.266 4.198 1.717 0.565 0.113 0.953 0.246 1.173 0.402 0.218 0.148 0.328 0.369 0.328 0.641C18.18 22.688 17.709 22.952 16.756 22.952z" fill="#8bd8bc" data-fill-palette-color="accent"></path><path d="M3.945 12.47C5.129 9.972 7.129 8.009 9.561 6.86L8.633 5.933c-0.928-0.928-2.434-0.928-3.361 0L3.021 8.185c-0.928 0.928-0.928 2.434 0 3.361L3.945 12.47z" fill="#8bd8bc" data-fill-palette-color="accent"></path><path d="M29.989 8.185l-2.251-2.252c-0.928-0.928-2.434-0.928-3.361 0L23.449 6.86c2.432 1.148 4.432 3.111 5.615 5.609l0.925-0.924C30.917 10.618 30.917 9.112 29.989 8.185z" fill="#8bd8bc" data-fill-palette-color="accent"></path></svg></g></svg></g></svg></g></svg></g><defs></defs></svg><rect width="395.52" height="152.79487255029306" fill="none" stroke="none" visibility="hidden"></rect></g></svg></g></svg>